<?xml version="1.0" standalone="no"?>
<!DOCTYPE svg PUBLIC "-//W3C//DTD SVG 20010904//EN"
 "http://www.w3.org/TR/2001/REC-SVG-20010904/DTD/svg10.dtd">
<svg version="1.0" xmlns="http://www.w3.org/2000/svg"
 width="300.000000pt" height="300.000000pt" viewBox="0 0 300.000000 300.000000"
 preserveAspectRatio="xMidYMid meet">
<metadata>
Created by potrace 1.16, written by Peter Selinger 2001-2019
</metadata>
<g transform="translate(0.000000,300.000000) scale(0.100000,-0.100000)"
fill="#000000" stroke="none">
<path d="M392 2829 c-75 -13 -149 -64 -188 -131 -63 -107 -59 -24 -59 -1218 0
-1055 1 -1097 19 -1145 38 -100 112 -173 203 -200 71 -22 2194 -22 2265 0 92
28 165 99 204 200 18 48 19 91 19 1145 0 1194 4 1111 -59 1218 -41 71 -111
118 -197 131 -80 13 -2129 13 -2207 0z m2215 -120 c40 -15 71 -47 96 -99 l22
-45 3 -1058 2 -1059 -30 -64 c-24 -50 -40 -69 -74 -89 l-43 -25 -1083 0 -1083
0 -43 25 c-34 20 -50 39 -74 89 l-30 64 2 1059 3 1058 22 45 c24 50 56 84 93
99 36 14 2179 15 2217 0z"/>
<path d="M1140 2563 c-120 -52 -150 -225 -53 -314 38 -36 59 -46 116 -54 40
-6 48 -11 54 -34 3 -14 13 -42 21 -61 9 -19 24 -57 33 -85 17 -47 17 -51 2
-60 -39 -23 -123 -109 -138 -141 -19 -40 -11 -41 -153 13 -54 20 -96 43 -99
52 -27 79 -56 122 -100 148 -93 54 -193 33 -260 -55 -46 -60 -51 -113 -19
-185 34 -77 94 -117 176 -117 54 0 87 15 166 75 8 6 42 0 101 -19 135 -43 133
-42 131 -95 -3 -69 11 -147 38 -205 30 -65 122 -154 198 -192 55 -27 68 -29
171 -29 105 0 115 2 169 30 114 59 187 145 220 257 79 273 -140 539 -425 515
-49 -4 -69 -2 -69 6 0 12 -30 91 -62 164 -20 48 -22 63 -8 63 18 0 70 104 70
141 0 73 -54 158 -117 184 -45 19 -118 18 -163 -2z"/>
<path d="M692 898 c-7 -7 -12 -16 -12 -21 0 -5 -17 -39 -39 -75 -21 -37 -61
-110 -88 -162 -27 -52 -63 -120 -80 -150 l-30 -55 85 5 85 5 20 38 19 38 146
-3 145 -3 21 -40 21 -40 78 3 c42 2 77 5 77 7 0 9 -187 357 -232 433 l-20 32
-92 0 c-58 0 -96 -4 -104 -12z"/>
<path d="M1247 903 c-4 -3 -7 -109 -7 -235 l0 -228 75 0 75 0 0 160 c0 88 3
160 8 160 4 0 65 -73 136 -163 l129 -162 113 3 114 3 0 235 0 234 -75 0 -75 0
-2 -167 -3 -168 -58 75 c-32 41 -68 88 -80 104 -12 15 -27 33 -32 40 -6 6 -30
35 -53 64 l-44 52 -107 0 c-59 0 -111 -3 -114 -7z"/>
<path d="M1990 850 l0 -60 105 0 105 0 0 -175 0 -175 75 0 75 0 0 175 0 175
100 0 100 0 0 60 0 60 -280 0 -280 0 0 -60z"/>
</g>
</svg>
