<?xml version="1.0" encoding="UTF-8" standalone="no"?>
<svg
   width="50"
   height="50"
   viewBox="0 0 50 50"
   version="1.1"
   id="svg1"
   sodipodi:docname="route.svg"
   inkscape:version="1.3.1 (6036e22fae, 2023-11-19, custom)"
   xmlns:inkscape="http://www.inkscape.org/namespaces/inkscape"
   xmlns:sodipodi="http://sodipodi.sourceforge.net/DTD/sodipodi-0.dtd"
   xmlns="http://www.w3.org/2000/svg"
   xmlns:svg="http://www.w3.org/2000/svg">
  <defs
     id="defs1" />
  <sodipodi:namedview
     id="namedview1"
     pagecolor="#ffffff"
     bordercolor="#000000"
     borderopacity="0.25"
     inkscape:showpageshadow="2"
     inkscape:pageopacity="0.0"
     inkscape:pagecheckerboard="0"
     inkscape:deskcolor="#d1d1d1"
     inkscape:zoom="20.4"
     inkscape:cx="19.97549"
     inkscape:cy="2.5980392"
     inkscape:window-width="1920"
     inkscape:window-height="1016"
     inkscape:window-x="0"
     inkscape:window-y="0"
     inkscape:window-maximized="1"
     inkscape:current-layer="svg1" />
  <path
     d="M 9.9876855,6.2322339 C 8.0555696,9.4895064 2.84734,39.89187 3.8133979,42.265697 c 0.719012,1.765157 3.5286907,2.660774 8.3534471,2.660774 7.044477,0 7.308116,-0.215645 8.515686,-6.956271 0.921809,-5.144154 2.122009,-6.956262 4.609051,-6.956262 2.487046,0 3.687241,1.812108 4.609054,6.956262 1.207571,6.740626 1.471211,6.956271 8.515686,6.956271 9.520457,0 10.209972,-2.144272 6.334684,-19.674064 C 40.132731,4.3662157 40.414806,4.9279341 34.513378,4.9279341 c -4.070716,0 -5.412872,0.8956191 -5.866404,3.9129 -0.324479,2.1529649 -1.834402,3.9129009 -3.355392,3.9129009 -1.520985,0 -3.03091,-1.759936 -3.355389,-3.9129009 -0.453531,-3.020759 -1.795687,-3.9129 -5.882998,-3.9129 -2.911075,0 -5.641478,0.5878045 -6.0655095,1.3042998 M 21.60434,22.318599 c 0,4.057243 0.81857,5.217202 3.687242,5.217202 2.868676,0 3.687241,-1.159959 3.687241,-5.217202 0,-4.057242 -0.818565,-5.217199 -3.687241,-5.217199 -2.868672,0 -3.687242,1.159957 -3.687242,5.217199"
     stroke="none"
     fill="current"
     fill-rule="evenodd"
     id="path1"
      />
</svg>
