<?xml version="1.0" standalone="no"?>
<!DOCTYPE svg PUBLIC "-//W3C//DTD SVG 20010904//EN"
 "http://www.w3.org/TR/2001/REC-SVG-20010904/DTD/svg10.dtd">
<svg version="1.0" xmlns="http://www.w3.org/2000/svg"
 width="974.000000pt" height="1280.000000pt" viewBox="0 0 974.000000 1280.000000"
 preserveAspectRatio="xMidYMid meet">
<metadata>
Created by potrace 1.15, written by Peter Selinger 2001-2017
</metadata>
<g transform="translate(0.000000,1280.000000) scale(0.100000,-0.100000)"
fill="#000000" stroke="none">
<path d="M5615 12794 c-563 -28 -973 -90 -1412 -215 -1165 -330 -1967 -1061
-2318 -2114 -78 -233 -138 -535 -154 -769 -5 -66 -9 -1244 -9 -2616 -1 -1372
-2 -2528 -2 -2567 l0 -73 -860 0 -860 0 133 -202 c73 -112 726 -1111 1451
-2220 l1318 -2018 191 268 c106 147 199 277 207 289 15 21 72 101 547 763 132
184 491 686 798 1115 307 429 756 1055 997 1392 241 337 438 614 438 615 0 2
-382 1 -850 -1 l-850 -3 0 148 c-3 2561 1 4445 10 4499 90 565 633 925 1395
925 578 0 952 -280 1124 -840 l26 -85 3 -4387 2 -4388 1400 0 1400 0 -3 4758
c-3 4490 -4 4763 -21 4872 -94 618 -309 1147 -641 1580 -149 194 -402 439
-601 582 -537 385 -1188 603 -2029 678 -120 11 -698 21 -830 14z"/>
</g>
</svg>
