<svg xmlns="http://www.w3.org/2000/svg" width="180.4766351475091" height="181.58878055698813"><rect id="backgroundrect" width="100%" height="100%" x="0" y="0" fill="none" stroke="none" class="" style=""/>
 
<g class="currentLayer" style=""><title>Layer 1</title><g stroke="#000" stroke-linecap="round" id="svg_1" class="">
  <path d="m23.963376631479182,37.984472997760115 h133.0938837448224 c5.199475372209392,0 9.385444813688686,7.088230276339328 9.385444813688686,15.892661190042073 v70.89666187180495 c0,8.804430913702744 -4.185969441479295,15.892661190042073 -9.385444813688686,15.892661190042073 h-133.0938837448224 c-5.199475372209392,0 -9.385444813688686,-7.088230276339328 -9.385444813688686,-15.892661190042073 v-70.89666187180495 c0,-8.804430913702744 4.185969441479295,-15.892661190042073 9.385444813688686,-15.892661190042073 z" fill="none" stroke-width="4.853747009999999" id="svg_2"/>
  <path d="m38.887828088013414,89.6417675695759 c0,8.601680302929891 -4.1179614297284965,15.574750529807586 -9.197701998207057,15.574750529807586 s-9.197701998207057,-6.973070226877693 -9.197701998207057,-15.574750529807586 s4.1179614297284965,-15.574750529807586 9.197701998207057,-15.574750529807586 s9.197701998207057,6.973070226877693 9.197701998207057,15.574750529807586 z" fill="none" stroke-width="3.8094" id="svg_3"/>
  <path d="m161.64822971415975,89.6417675695759 c0,8.601680302929891 -4.1179614297284965,15.574750529807586 -9.197701998207057,15.574750529807586 s-9.197701998207057,-6.973070226877693 -9.197701998207057,-15.574750529807586 s4.1179614297284965,-15.574750529807586 9.197701998207057,-15.574750529807586 s9.197701998207057,6.973070226877693 9.197701998207057,15.574750529807586 z" fill="none" stroke-width="3.8094" id="svg_4"/>
  <path d="m59.527666068243185,52.455582455046354 h65.32161048862189 c5.199475372209392,0 9.385444813688686,7.088230276339328 9.385444813688686,15.892661190042073 l-3.7541779254754752,42.59198737071087 c0,8.804430913702744 -4.185969441479295,15.892661190042073 -9.385444813688686,15.892661190042073 l-58.9397115305607,-0.6357064476016837 c-5.199475372209392,0 -9.385444813688686,-7.088230276339328 -9.385444813688686,-15.892661190042073 l-2.6278906286249772,-41.95731477891483 c0,-8.804430913702744 4.185969441479295,-15.892661190042073 9.385444813688686,-15.892661190042073 z" fill="none" stroke-width="3.8094" id="svg_5"/>
  <path d="m66.2945480354672,75.34112944157422 c0,2.4576188410918514 -1.1765555628927349,4.449887696778134 -2.6278906286249772,4.449887696778134 s-2.6278906286249772,-1.992297573903107 -2.6278906286249772,-4.449887696778134 s1.1765555628927349,-4.449887696778134 2.6278906286249772,-4.449887696778134 s2.6278906286249772,1.992297573903107 2.6278906286249772,4.449887696778134 z" stroke-width="3.8094" id="svg_6"/>
  <path d="m80.18497241981595,75.34112944157422 c0,2.4576188410918514 -1.1765555628927349,4.449887696778134 -2.6278906286249772,4.449887696778134 s-2.6278906286249772,-1.992297573903107 -2.6278906286249772,-4.449887696778134 s1.1765555628927349,-4.449887696778134 2.6278906286249772,-4.449887696778134 s2.6278906286249772,1.992297573903107 2.6278906286249772,4.449887696778134 z" stroke-width="3.8094" id="svg_7"/>
  <path d="m92.76170583474236,75.34112944157422 c0,2.4576188410918514 -1.1765555628927349,4.449887696778134 -2.6278906286249772,4.449887696778134 s-2.6278906286249772,-1.992297573903107 -2.6278906286249772,-4.449887696778134 s1.1765555628927349,-4.449887696778134 2.6278906286249772,-4.449887696778134 s2.6278906286249772,1.992297573903107 2.6278906286249772,4.449887696778134 z" stroke-width="3.8094" id="svg_8"/>
  <path d="m106.8398724471353,75.34112944157422 c0,2.4576188410918514 -1.1765555628927349,4.449887696778134 -2.6278906286249772,4.449887696778134 s-2.6278906286249772,-1.992297573903107 -2.6278906286249772,-4.449887696778134 s1.1765555628927349,-4.449887696778134 2.6278906286249772,-4.449887696778134 s2.6278906286249772,1.992297573903107 2.6278906286249772,4.449887696778134 z" stroke-width="3.8094" id="svg_9"/>
  <path d="m120.35498058435802,75.34112944157422 c0,2.4576188410918514 -1.1765555628927349,4.449887696778134 -2.6278906286249772,4.449887696778134 s-2.6278906286249772,-1.992297573903107 -2.6278906286249772,-4.449887696778134 s1.1765555628927349,-4.449887696778134 2.6278906286249772,-4.449887696778134 s2.6278906286249772,1.992297573903107 2.6278906286249772,4.449887696778134 z" stroke-width="3.8094" id="svg_10"/>
  <path d="m74.17821986311593,101.40492092742167 c0,2.4576188410918514 -1.1765555628927349,4.449887696778134 -2.6278906286249772,4.449887696778134 s-2.6278906286249772,-1.992297573903107 -2.6278906286249772,-4.449887696778134 s1.1765555628927349,-4.449887696778134 2.6278906286249772,-4.449887696778134 s2.6278906286249772,1.992297573903107 2.6278906286249772,4.449887696778134 z" stroke-width="3.8094" id="svg_11"/>
  <path d="m86.75461443402696,101.40492092742167 c0,2.4576188410918514 -1.1765555628927349,4.449887696778134 -2.6278906286249772,4.449887696778134 s-2.6278906286249772,-1.992297573903107 -2.6278906286249772,-4.449887696778134 s1.1765555628927349,-4.449887696778134 2.6278906286249772,-4.449887696778134 s2.6278906286249772,1.992297573903107 2.6278906286249772,4.449887696778134 z" stroke-width="3.8094" id="svg_12"/>
  <path d="m100.8327810464199,101.40492092742167 c0,2.4576188410918514 -1.1765555628927349,4.449887696778134 -2.6278906286249772,4.449887696778134 s-2.6278906286249772,-1.992297573903107 -2.6278906286249772,-4.449887696778134 s1.1765555628927349,-4.449887696778134 2.6278906286249772,-4.449887696778134 s2.6278906286249772,1.992297573903107 2.6278906286249772,4.449887696778134 z" stroke-width="3.8094" id="svg_13"/>
  <path d="m114.34788918364261,101.40492092742167 c0,2.4576188410918514 -1.1765555628927349,4.449887696778134 -2.6278906286249772,4.449887696778134 s-2.6278906286249772,-1.992297573903107 -2.6278906286249772,-4.449887696778134 s1.1765555628927349,-4.449887696778134 2.6278906286249772,-4.449887696778134 s2.6278906286249772,1.992297573903107 2.6278906286249772,4.449887696778134 z" stroke-width="3.8094" id="svg_14"/>
 </g></g></svg>