<svg version="1.0" xmlns="http://www.w3.org/2000/svg"
 width="512.000000pt" height="398.000000pt" viewBox="0 0 512.000000 398.000000"
 preserveAspectRatio="xMidYMid meet">

<g transform="translate(0.000000,398.000000) scale(0.100000,-0.100000)"
fill="#000000" stroke="none">
<path d="M2355 3974 c-16 -2 -79 -9 -140 -15 -767 -76 -1525 -480 -2058 -1098
-120 -140 -137 -183 -99 -263 22 -47 232 -265 269 -279 56 -21 92 1 184 113
637 780 1639 1138 2599 928 578 -125 1115 -458 1499 -928 92 -112 128 -134
184 -113 37 14 247 232 269 279 38 80 21 123 -99 263 -618 717 -1505 1126
-2423 1117 -85 0 -168 -3 -185 -4z"/>
<path d="M2330 2849 c-531 -60 -1041 -338 -1392 -760 -131 -158 -150 -208
-108 -294 10 -22 72 -95 138 -162 110 -114 122 -123 156 -123 54 0 68 11 129
97 245 347 591 576 1001 665 85 19 132 22 306 22 175 0 220 -3 305 -22 409
-91 725 -296 981 -638 46 -62 91 -114 100 -118 8 -3 32 -6 51 -6 33 0 47 11
155 123 150 154 179 211 148 293 -19 48 -141 196 -260 314 -346 344 -787 557
-1262 609 -112 13 -338 12 -448 0z"/>
<path d="M2405 1734 c-313 -48 -563 -172 -778 -386 -175 -175 -173 -225 18
-419 130 -132 140 -139 182 -139 34 0 60 22 146 124 300 353 874 353 1174 0
94 -112 109 -124 145 -124 43 0 52 7 183 139 191 194 193 244 18 419 -184 183
-403 305 -653 363 -83 20 -361 34 -435 23z"/>
<path d="M2491 680 c-59 -13 -119 -49 -170 -105 -65 -70 -84 -123 -85 -230 -1
-78 3 -98 26 -147 32 -70 96 -135 163 -168 41 -20 65 -25 135 -25 78 0 90 3
148 34 70 38 120 92 154 167 18 39 22 67 22 139 0 78 -3 98 -27 146 -32 65
-109 142 -170 169 -52 23 -138 31 -196 20z"/>
</g>
</svg>
